<?xml version="1.0" encoding="utf-8"?>
<!-- Generator: Adobe Illustrator 25.2.3, SVG Export Plug-In . SVG Version: 6.00 Build 0)  -->
<svg version="1.1" id="Layer_1" xmlns="http://www.w3.org/2000/svg" xmlns:xlink="http://www.w3.org/1999/xlink" x="0px" y="0px"
	 viewBox="0 0 408.9 409.4" style="enable-background:new 0 0 408.9 409.4;" xml:space="preserve">
<g>
	<path d="M213.6,0c8.4,1.8,17.2,2.8,25.3,5.7c42.6,15.5,68,45.8,73.1,90.8c4.6,40.9-11.4,73.8-44.3,98.6c-2.2,1.6-2.9,3.3-2.9,5.9
		c0.1,12.8,0.1,25.5,0.1,38.6c-16,0-31.8,0-47.9,0c-0.1-1.3-0.2-2.6-0.2-3.9c0-30,0-60-0.1-89.9c0-2.7,0.6-4.1,3.3-5.3
		c12.8-5.8,21.4-19.5,20.5-32.1c-0.3-0.1-0.7-0.3-1.1-0.3c-7.3,0-14.7,0-21,0c-2.6,3.7-4.5,7.2-7.2,9.8c-1.6,1.5-4.7,2-7.1,2.1
		c-5.9,0-9.8-4.1-11.7-11.6c-7.8,0-15.6,0-23.4,0c-0.9,12.6,7.5,26.1,20.2,32c2.9,1.4,3.7,2.9,3.6,6c-0.1,29.7-0.1,59.4-0.1,89.1
		c0,1.3,0,2.6,0,4.3c-16,0-31.8,0-48.1,0c0-1.4,0-2.8,0-4.2c0-11.6-0.1-23.2,0.1-34.8c0-2.4-0.6-3.9-2.6-5.3
		c-24.9-18-39.7-42.2-44.5-72.5C89.5,72.1,123,19.4,172.9,4.9c7.5-2.2,15.3-3.3,23-4.9C201.8,0,207.7,0,213.6,0z"/>
	<path d="M69.4,0c8,7.6,16.1,15.1,23.7,22.4c-6.5,6.4-12,11.9-17.2,17.2c-7.2-7.2-15-15-23-23.1c5-5.2,10.4-10.8,15.7-16.5
		C68.8,0,69.1,0,69.4,0z"/>
	<path d="M341,0c5.4,5.6,10.7,11.3,15.9,16.7c-8,8-15.8,15.9-23.6,23.7c-5.2-5.2-10.7-10.7-16.5-16.5C324.5,16,332.3,8,340.2,0
		C340.4,0,340.7,0,341,0z"/>
	<path d="M361.1,265.5c-0.9,19.8,1.4,39-2.5,58c-10,48.9-53.9,85.2-103.9,85.9c-12.5,0.2-25,0-37.5,0c-1.3-4.3,0-7,3.3-9.8
		c23.8-20.1,47.5-40.5,71.2-60.8c1.5-1.3,3-2.6,4.9-4.2c-5.2-6.1-10.3-12-15.6-18.2c-21.3,18.2-42.4,36.3-64.3,54.9
		c0-22,0-43.2,0-64.4c-0.3-0.1-0.7-0.2-1-0.4c-3.6,5.5-7.2,10.9-11,16.7c-3.7-5.6-7.4-11.1-11-16.7c-0.3,0.1-0.6,0.2-1,0.3
		c0,21.2,0,42.3,0,64.5c-21.8-18.6-42.8-36.6-64.3-55c-5.2,6-10.2,11.9-15.6,18.2c5.6,4.8,11,9.5,16.4,14.1
		c19.8,16.9,39.5,33.9,59.3,50.7c3.1,2.6,5.2,5.2,3.7,9.7c0,0-0.2,0.3-0.4,0.3c-20.4-0.4-40.8,1.7-61-3
		c-40.5-9.3-74.9-45.1-80.6-86.4c-2.4-17.7-1.9-35.8-2.7-54.5c2.3,0,3.7,0,5.1,0c17.8,0,35.5,0,53.3,0c34.2-0.1,62.5,12.6,85,38.3
		c0.3,0.3,0.5,0.6,1.4,1.9c0-14.5,0-27.9,0-41.5c8.2,0,15.9,0,24.1,0c0,13.4,0,26.9,0,40.8c5.6-5.3,10.4-10.4,15.8-14.8
		c19.3-15.9,41.6-24.1,66.6-24.6c19.6-0.3,39.3-0.1,58.9-0.1C358.8,265.5,359.7,265.5,361.1,265.5z"/>
	<path d="M92.3,212.3c-7.8,7.8-15.6,15.5-23.1,23.1c-5.3-5.3-10.8-10.8-16.1-16c7.5-7.5,15.4-15.4,23.1-23.1
		C81.4,201.5,86.9,206.9,92.3,212.3z"/>
	<path d="M317.3,212.1c5.2-5.2,10.6-10.6,15.7-15.7c7.8,7.7,15.7,15.5,23.3,23.1c-5.1,5.1-10.6,10.6-15.8,15.8
		C332.9,227.7,325,219.9,317.3,212.1z"/>
</g>
</svg>
