<?xml version="1.0" encoding="utf-8"?>
<!-- Generator: Adobe Illustrator 25.2.3, SVG Export Plug-In . SVG Version: 6.00 Build 0)  -->
<svg version="1.1" id="Layer_1" xmlns="http://www.w3.org/2000/svg" xmlns:xlink="http://www.w3.org/1999/xlink" x="0px" y="0px"
	 viewBox="0 0 408.9 409.4" style="enable-background:new 0 0 408.9 409.4;" xml:space="preserve">
<g>
	<path d="M0,393.7c8.5-16.6,16.9-33.3,25.4-49.9c2-3.9,3.2-9.3,6.4-11.2c3.4-2,8.7-0.8,13.2-0.8c47.4,0,94.7,0,142.1,0
		c1.7,0,3.4,0,5.4,0c0,26,0,51.5,0,77.1c-61.2,0-122.5,0-183.7,0c-4.2-2.1-7.3-5-8.8-9.6C0,397.4,0,395.5,0,393.7z"/>
	<path d="M216.4,408.8c0-25.5,0-51,0-77.1c1.7,0,3.1,0,4.5,0c50.8,0,101.6,0,152.4-0.1c3.1,0,4.7,1,6,3.8
		c8.7,17.5,17.5,34.9,26.3,52.3c5.3,10.5,4.1,15-5.6,21.1C338.9,408.8,277.7,408.8,216.4,408.8z"/>
	<path d="M192.4,230.8c0,25.9,0,51.1,0,76.7c-49.4,0-98.7,0-148.4,0c0.5-1.2,0.8-2.2,1.3-3.2c10.9-21.6,21.9-43.1,32.7-64.8
		c3-6.1,7.5-8.8,14.2-8.8c32.1,0.1,64.2,0.1,96.2,0.1C189.7,230.8,190.8,230.8,192.4,230.8z"/>
	<path d="M216.6,307.5c0-25.6,0-50.9,0-76.7c1.5,0,2.9,0,4.3,0c31.8,0,63.6,0.1,95.4-0.1c7.1,0,11.7,2.7,14.9,9.1
		c10.6,21.4,21.5,42.7,32.3,64.1c0.5,1.1,1,2.1,1.7,3.6C315.5,307.5,266.2,307.5,216.6,307.5z"/>
	<path d="M248.4,105.4c0,24.1-19.8,43.9-43.9,43.9c-24.2,0-43.9-19.8-43.9-43.9c0-24.1,19.8-43.9,43.9-43.9
		C228.6,61.5,248.4,81.3,248.4,105.4z"/>
	<path d="M169,56.6c-0.2,5.9-2.2,9.6-6.5,11.9c-4.3,2.2-8.9,2.3-12.4-0.9c-7.4-6.8-14.6-14-21.4-21.4c-3.9-4.3-2.9-11.1,1.2-15.2
		c4.1-4.1,10.9-5.1,15.3-1.2c7.5,6.8,14.5,14.1,21.4,21.4C168.2,52.7,168.5,55.4,169,56.6z"/>
	<path d="M282.7,40.9c-1,1.7-2.1,5-4.2,7.3c-5.7,6.2-11.7,12-17.7,17.8c-5.4,5.2-12.7,5.2-17.5,0.2c-4.6-4.8-4.5-11.9,0.6-17.2
		c5.9-6.1,12-12.1,18.1-18c3.9-3.8,8.6-4.7,13.6-2.4C280.1,30.6,282.2,34.5,282.7,40.9z"/>
	<path d="M282.6,170.3c-0.4,5.9-2.4,9.6-6.7,11.8c-4.3,2.2-8.9,2.1-12.4-1.1c-7.3-6.8-14.4-13.8-21.1-21.2c-4-4.4-3.1-11.5,1.2-15.6
		c4.3-4.1,11.2-4.8,15.6-0.7c7.1,6.6,13.9,13.5,20.6,20.6C281.5,166,282,168.8,282.6,170.3z"/>
	<path d="M155.7,140.8c5.9,0.2,9.7,2.2,11.9,6.5c2.2,4.3,2.3,8.9-1,12.4c-6.8,7.4-14,14.6-21.4,21.4c-4.3,3.9-11.1,2.9-15.2-1.2
		c-4.1-4.2-5.1-10.9-1.1-15.2c6.8-7.5,14.1-14.5,21.4-21.4C151.8,141.7,154.5,141.3,155.7,140.8z"/>
	<path d="M216.4,25.1c0,4.3,0.1,8.5,0,12.8c-0.2,7.2-5.2,12.3-12,12.3c-6.7,0-11.8-5.2-11.9-12.3c-0.1-8.5-0.1-17,0-25.5
		C192.6,5.2,197.8,0,204.5,0c6.7,0,11.8,5.2,12,12.4C216.5,16.6,216.4,20.9,216.4,25.1z"/>
	<path d="M124.3,93.4c4.1,0,8.3-0.1,12.4,0c7.4,0.1,12.7,5.3,12.6,12.1c-0.1,6.7-5.3,11.7-12.5,11.8c-8.5,0.1-17,0.1-25.6,0
		c-7.1-0.1-12.3-5.3-12.2-12.1c0.1-6.6,5.1-11.6,12.1-11.8C115.5,93.3,119.9,93.4,124.3,93.4z"/>
	<path d="M284.6,117.4c-4.3,0-8.5,0.1-12.8,0c-7.1-0.2-12.3-5.4-12.2-12.1c0.1-6.5,5.2-11.7,12.1-11.8c8.6-0.1,17.3-0.1,26,0
		c7.1,0.1,12.3,5.4,12.2,12.1c-0.1,6.7-5.3,11.7-12.5,11.8C293.1,117.4,288.9,117.4,284.6,117.4z"/>
	<path d="M216.4,185.9c0,4.1,0.1,8.3,0,12.4c-0.2,7.2-5.1,12.4-11.8,12.5c-6.7,0.1-11.9-5.1-12-12.2c-0.1-8.6-0.1-17.3,0-26
		c0.1-6.9,5.3-12,11.8-12.1c6.7-0.1,11.9,5.1,12.1,12.2C216.5,177.2,216.4,181.5,216.4,185.9z"/>
</g>
</svg>
