<?xml version="1.0" encoding="utf-8"?>
<!-- Generator: Adobe Illustrator 25.2.3, SVG Export Plug-In . SVG Version: 6.00 Build 0)  -->
<svg version="1.1" id="Layer_1" xmlns="http://www.w3.org/2000/svg" xmlns:xlink="http://www.w3.org/1999/xlink" x="0px" y="0px"
	 viewBox="0 0 408.9 409.4" style="enable-background:new 0 0 408.9 409.4;" xml:space="preserve">
<g>
	<path d="M0,384.5c16.1,0,32.2,0,48.7,0c0-24.2,0-48.2,0-72.4c8.1,0,15.8,0,23.7,0c0-19,0-37.6,0-56.9
		c-17.1,9.9-34.1,19.6-51.6,29.7c-3.9-6.8-7.8-13.5-11.9-20.5c1.3-0.8,2.4-1.6,3.7-2.3c18.9-10.9,37.7-21.8,56.7-32.6
		c2.8-1.6,3.5-3.2,3.5-6.2c-0.1-24.6-0.1-49.1-0.1-73.7c0-1.4,0-2.9,0-4.6c8,0,15.7,0,24,0c0,1.4,0,2.8,0,4.2
		c0,24.8,0,49.7-0.1,74.5c0,2.7,0.8,4.2,3.2,5.6c18.9,10.8,37.8,21.7,56.7,32.6c1.2,0.7,2.5,1.5,4,2.4c-4,7-7.9,13.7-12,20.7
		c-17.2-9.9-34.2-19.7-51.6-29.7c0,19.1,0,37.7,0,56.8c7.8,0,15.5,0,23.6,0c0,24.3,0,48.2,0,72.3c16,0,31.8,0,48,0
		c0-31.9,0-63.8,0-96c8.1,0,15.8,0,24,0c0-1.6,0-2.8,0-4.1c0-38,0-76,0-114c0-5.1-5-7.9-9.4-5.3c-19.5,11.2-38.9,22.4-58.4,33.6
		c-1.1,0.6-2.3,1.3-4.1,2.2c0-9.1-0.1-17.6,0.1-26.1c0-1,1.6-2.3,2.7-2.9c14.6-8.5,29.2-16.9,43.9-25.3c2.2-1.3,3.2-2.3,2.5-5.2
		c-4.3-16.7,3.9-33.6,19.8-40.8c2.4-1.1,3-2.3,3-4.7c-0.1-31.7-0.1-63.5-0.1-95.2c8,0,16,0,24,0c0,32.8,0,65.6,0,98.4
		c2.3,1.2,4.4,2.2,6.5,3.4c13.6,8.1,20.2,23.7,16.2,39c-0.7,2.6,0,3.8,2.2,5c14.7,8.3,29.2,16.9,43.9,25.2c2.2,1.3,3.2,2.6,3.2,5.2
		c-0.2,7.8-0.1,15.6-0.1,24.1c-1.7-0.9-2.9-1.6-4.1-2.3c-19.3-11.1-38.7-22.3-58-33.4c-4.9-2.8-9.7,0-9.7,5.6c0,37.6,0,75.2,0,112.8
		c0,1.4,0,2.9,0,4.6c8,0,15.7,0,23.8,0c0,32.2,0,64.1,0,96.3c16.2,0,31.9,0,48,0c0-23.9,0-47.8,0-72.1c8,0,15.8,0,23.8,0
		c0-19.1,0-37.7,0-57c-17.2,9.9-34.2,19.7-51.6,29.7c-3.9-6.8-7.9-13.5-12-20.6c1.4-0.9,2.7-1.7,4.1-2.5
		c18.6-10.7,37.3-21.5,56-32.2c2.7-1.6,3.8-3.2,3.8-6.4c-0.2-24.6-0.1-49.1-0.1-73.7c0-1.4,0-2.9,0-4.6c8,0,15.8,0,24,0
		c0,1.5,0,2.9,0,4.3c0,24.8,0,49.7-0.1,74.5c0,2.7,0.8,4.2,3.2,5.6c18.9,10.8,37.8,21.7,56.7,32.6c1.2,0.7,2.5,1.5,4,2.4
		c-4,7-7.9,13.7-12,20.6c-17.3-9.9-34.2-19.7-51.6-29.7c0,19.1,0,37.8,0,56.8c7.8,0,15.6,0,23.6,0c0,24.3,0,48.2,0,72.6
		c16.5,0,32.6,0,48.8,0c0,8,0,15.9,0,23.9c-136.3,0-272.6,0-408.9,0C0,400.4,0,392.4,0,384.5z"/>
</g>
</svg>
